<svg width="19" height="21" viewBox="0 0 19 21" fill="none" xmlns="http://www.w3.org/2000/svg">
<path d="M16.4062 3.31555H12.5C12.5 1.94035 11.0986 0.822266 9.375 0.822266C7.65137 0.822266 6.25 1.94035 6.25 3.31555H2.34375C1.0498 3.31555 0 4.15314 0 5.18552V18.8986C0 19.931 1.0498 20.7686 2.34375 20.7686H16.4062C17.7002 20.7686 18.75 19.931 18.75 18.8986V5.18552C18.75 4.15314 17.7002 3.31555 16.4062 3.31555ZM4.6875 17.3403C4.03809 17.3403 3.51562 16.9234 3.51562 16.4053C3.51562 15.8872 4.03809 15.4703 4.6875 15.4703C5.33691 15.4703 5.85938 15.8872 5.85938 16.4053C5.85938 16.9234 5.33691 17.3403 4.6875 17.3403ZM4.6875 13.6004C4.03809 13.6004 3.51562 13.1835 3.51562 12.6654C3.51562 12.1472 4.03809 11.7304 4.6875 11.7304C5.33691 11.7304 5.85938 12.1472 5.85938 12.6654C5.85938 13.1835 5.33691 13.6004 4.6875 13.6004ZM4.6875 9.86043C4.03809 9.86043 3.51562 9.44358 3.51562 8.92545C3.51562 8.40731 4.03809 7.99046 4.6875 7.99046C5.33691 7.99046 5.85938 8.40731 5.85938 8.92545C5.85938 9.44358 5.33691 9.86043 4.6875 9.86043ZM9.375 2.38057C10.0244 2.38057 10.5469 2.79742 10.5469 3.31555C10.5469 3.83369 10.0244 4.25053 9.375 4.25053C8.72559 4.25053 8.20312 3.83369 8.20312 3.31555C8.20312 2.79742 8.72559 2.38057 9.375 2.38057ZM15.625 16.717C15.625 16.8884 15.4492 17.0286 15.2344 17.0286H8.20312C7.98828 17.0286 7.8125 16.8884 7.8125 16.717V16.0936C7.8125 15.9222 7.98828 15.782 8.20312 15.782H15.2344C15.4492 15.782 15.625 15.9222 15.625 16.0936V16.717ZM15.625 12.977C15.625 13.1484 15.4492 13.2887 15.2344 13.2887H8.20312C7.98828 13.2887 7.8125 13.1484 7.8125 12.977V12.3537C7.8125 12.1823 7.98828 12.0421 8.20312 12.0421H15.2344C15.4492 12.0421 15.625 12.1823 15.625 12.3537V12.977ZM15.625 9.23711C15.625 9.40852 15.4492 9.54877 15.2344 9.54877H8.20312C7.98828 9.54877 7.8125 9.40852 7.8125 9.23711V8.61378C7.8125 8.44237 7.98828 8.30212 8.20312 8.30212H15.2344C15.4492 8.30212 15.625 8.44237 15.625 8.61378V9.23711Z" fill="#221F20"/>
</svg>
